# xmcd
#
# Track frame offsets: 
#        150
#        9515
#        19507
#        32050
#        41317
#        50240
#        61625
#        72242
#        85775
#        95525
#        107182
#        118370
#        129955
#        142285
#        154665
#        167070
#        180155
#        194160
#
# Disc length: 2777 seconds
#
# Revision: 0
# Processed by: cddbd v1.4PL0 Copyright (c) Steve Scherf et al.
# Submitted via: ExactAudioCopy v0.90a11
#
DISCID=f30ad712
DTITLE=George Jones - Heartaches and Hangovers
DYEAR=1900
DGENRE=
TTITLE0=The Race Is On
TTITLE1=Heartaches and Hangovers
TTITLE2=Don't Be Angry
TTITLE3=Living On Easy Street
TTITLE4=The Love Bug
TTITLE5=Talk Back Trembling Lips
TTITLE6=Ragged But Right
TTITLE7=Come Sundown
TTITLE8=Honky Tonk Downstairs
TTITLE9=We Must Have Been Out Of Our Minds
TTITLE10=Ruby Don't Take Your Love To Town
TTITLE11=Fightin' Side Of Me
TTITLE12=Okie From Muskogee
TTITLE13=Blue Side Of Lonesome
TTITLE14=Take Me
TTITLE15=Hello Darlin'
TTITLE16=All I Have To Offer You (Is Me)
TTITLE17=Almost Persuaded
EXTD=
EXTT0=
EXTT1=
EXTT2=
EXTT3=
EXTT4=
EXTT5=
EXTT6=
EXTT7=
EXTT8=
EXTT9=
EXTT10=
EXTT11=
EXTT12=
EXTT13=
EXTT14=
EXTT15=
EXTT16=
EXTT17=
PLAYORDER=
